<?xml version="1.0" encoding="UTF-8"?>
<svg width="512px" height="512px" viewBox="0 0 512 512" version="1.1" xmlns="http://www.w3.org/2000/svg" xmlns:xlink="http://www.w3.org/1999/xlink">
    <title>Icon</title>
    <defs>
        <linearGradient x1="50%" y1="0%" x2="50%" y2="100%" id="linearGradient-1">
            <stop stop-color="#F45C43" offset="0%"></stop>
            <stop stop-color="#EB3349" offset="100%"></stop>
        </linearGradient>
    </defs>
    <g id="Icon" stroke="none" stroke-width="1" fill="none" fill-rule="evenodd">
        <path d="M512,365.858544 C512,416.675112 506.70894,435.102427 496.773436,453.680205 C486.837932,472.257983 472.257983,486.837932 453.680205,496.773436 C435.102427,506.70894 416.675112,512 365.858544,512 L365.858544,512 L146.141456,512 L144.626644,511.998413 C94.9563269,511.893714 76.7117949,506.609585 58.3197949,496.773436 C39.7420171,486.837932 25.1620684,472.257983 15.2265641,453.680205 C5.29105984,435.102427 2.28704159e-15,416.675112 -3.93619317e-15,365.858544 L-3.93619317e-15,365.858544 L3.93619317e-15,146.141456 L0.00158667134,144.626644 C0.106285641,94.9563269 5.39041488,76.7117949 15.2265641,58.3197949 C25.1620684,39.7420171 39.7420171,25.1620684 58.3197949,15.2265641 C76.8975727,5.29105984 95.3248882,3.43056238e-15 146.141456,-5.90428975e-15 L146.141456,-5.90428975e-15 L365.858544,5.90428975e-15 L367.373356,0.00158667134 C417.043673,0.106285641 435.288205,5.39041488 453.680205,15.2265641 C472.257983,25.1620684 486.837932,39.7420171 496.773436,58.3197949 C506.70894,76.8975727 512,95.3248882 512,146.141456 L512,146.141456 Z" id="Combined-Shape" fill="url(#linearGradient-1)"></path>
        <path d="M256.253951,169 L300.018,305.482 L387,197.335859 L372.474409,398 L329.686,397.999 L329.686778,398 L182.821124,398 L182.821,397.999 L139.525591,398 L125,197.335859 L212.344,305.933 L256.253951,169 Z M396,144 C408.702549,144 419,154.297451 419,167 C419,179.702549 408.702549,190 396,190 C383.297451,190 373,179.702549 373,167 C373,154.297451 383.297451,144 396,144 Z M116,144 C128.702549,144 139,154.297451 139,167 C139,179.702549 128.702549,190 116,190 C103.297451,190 93,179.702549 93,167 C93,154.297451 103.297451,144 116,144 Z M256,115 C268.702549,115 279,125.297451 279,138 C279,150.702549 268.702549,161 256,161 C243.297451,161 233,150.702549 233,138 C233,125.297451 243.297451,115 256,115 Z" id="Glyph" fill="#FFFFFF"></path>
    </g>
</svg>