<?xml version="1.0" standalone="no"?>
<!DOCTYPE svg PUBLIC "-//W3C//DTD SVG 20010904//EN"
 "http://www.w3.org/TR/2001/REC-SVG-20010904/DTD/svg10.dtd">
<svg version="1.0" xmlns="http://www.w3.org/2000/svg"
 width="256.000000pt" height="256.000000pt" viewBox="0 0 256.000000 256.000000"
 preserveAspectRatio="xMidYMid meet">
<metadata>
Created by potrace 1.14, written by Peter Selinger 2001-2017
</metadata>
<g transform="translate(0.000000,256.000000) scale(0.100000,-0.100000)"
fill="#000000" stroke="none">
<path d="M1212 2110 c-64 -39 -89 -118 -58 -178 52 -100 181 -107 243 -13 78
116 -66 264 -185 191z"/>
<path d="M380 1933 c-53 -28 -83 -78 -77 -132 6 -52 32 -90 78 -113 46 -24 89
-22 130 5 65 43 86 124 49 184 -39 65 -117 89 -180 56z"/>
<path d="M2060 1933 c-100 -52 -104 -184 -8 -243 66 -40 154 -14 188 54 25 53
25 92 0 133 -39 65 -117 89 -180 56z"/>
<path d="M1253 1727 c-102 -331 -239 -745 -244 -741 -4 2 -121 146 -259 319
-139 173 -254 315 -256 315 -2 0 -2 -24 0 -52 3 -29 8 -98 11 -153 4 -55 8
-116 10 -135 2 -19 6 -82 10 -140 3 -58 8 -121 10 -140 2 -19 7 -78 11 -130
10 -153 11 -170 19 -275 4 -55 8 -116 9 -135 l2 -35 698 0 c614 0 699 2 701
15 2 8 6 69 10 135 4 66 9 138 10 160 9 121 16 216 20 265 2 30 7 93 10 140 3
47 8 110 10 140 2 30 7 93 10 140 3 47 8 111 11 143 3 31 3 57 1 57 -2 0 -46
-53 -98 -117 -51 -65 -116 -146 -144 -180 -27 -33 -58 -72 -68 -85 -132 -170
-208 -258 -212 -246 -3 7 -29 90 -59 183 -30 94 -84 262 -120 375 -36 114 -66
211 -66 217 0 7 -4 14 -9 17 -5 3 -18 -22 -28 -57z"/>
</g>
</svg>
